<svg xmlns="http://www.w3.org/2000/svg" width="311" height="64" viewBox="0 0 311 64">
  <g id="logo-fundo-preto" transform="translate(-5.009 -5)">
    <path id="formato" d="M40.017,11.527h0V11.39ZM12.694,61.56a7.121,7.121,0,0,1-2.012-5.126,7.232,7.232,0,0,1,14.461.148V56.6a7.32,7.32,0,0,1-7.317,7.171.374.374,0,0,1-.044,0h-.019a7.207,7.207,0,0,1-5.07-2.21m42.45-5.126A7.116,7.116,0,0,1,57.369,51.4a7.239,7.239,0,0,1,12.236,5.186,7.3,7.3,0,0,1-7.3,7.189c-.021,0-.044,0-.064,0h-.015a7.216,7.216,0,0,1-7.082-7.336M45.736,28.5a12.905,12.905,0,0,0,5.808-5.774l.675-1.353,1.252.852A22.8,22.8,0,0,1,63.464,40.9a17.7,17.7,0,0,1-.115,2.118l-.134,1.153-1.167.009A12.683,12.683,0,0,0,49.5,56.6h0a12.034,12.034,0,0,0,.581,3.683l.368,1.141-1.111.467a24.125,24.125,0,0,1-18.62,0L29.6,61.423l.366-1.14a12.02,12.02,0,0,0,.577-3.7A12.613,12.613,0,0,0,18,44.182l-1.212-.006-.1-1.2c-.055-.667-.109-1.357-.109-2.064a22.808,22.808,0,0,1,9.985-18.688l1.252-.852.675,1.353a12.766,12.766,0,0,0,7.421,6.438,12.857,12.857,0,0,0,9.827-.663M32.665,17.4a7.3,7.3,0,0,1,7.3-7.19h.087a7.323,7.323,0,0,1,7.319,7.169V17.4a7.354,7.354,0,0,1-14.707,0M37.321,5.285a12.8,12.8,0,0,0-9.841,9.783l-.132.615-.566.281A28.228,28.228,0,0,0,19.6,21.08a27.7,27.7,0,0,0-8.456,19.831,29.215,29.215,0,0,0,.283,3.972l.117.84-.722.452A12.323,12.323,0,0,0,6.908,63.2a12.494,12.494,0,0,0,10.824,5.778H17.8a12.957,12.957,0,0,0,7.994-2.77l.648-.514.747.361a29.462,29.462,0,0,0,25.666,0L53.6,65.7l.649.514a12.837,12.837,0,0,0,8,2.77A12.6,12.6,0,0,0,75.009,56.57a12.246,12.246,0,0,0-5.815-10.4l-.671-.418.349-4.886a28.106,28.106,0,0,0-15.628-24.9l-.566-.283-.132-.613A12.834,12.834,0,0,0,37.321,5.285" transform="translate(0)" fill="#e51d35"/>
    <path id="logotipo" d="M296.607,38.217h4.83l-4.146,6.373H293.4Zm-3.933,30.188h5.215V47.132h-5.215Zm-7.351-27.951h-5.215v6.621h-4.06V51.46h4.06V68.313h5.215V51.46h4.1V47.075h-4.1Zm-45.606,5.868a7.756,7.756,0,0,0-6.753,3.42l-.427-2.771h-4.83V68.353h5.215V56.84c0-3.463,1.966-5.713,5.172-5.713,2.693,0,4.445,1.731,4.445,5.324v11.9h5.215V55.195c0-5.541-2.736-8.873-8.036-8.873m34.493,11.017c0,6.5-4.744,10.975-11.284,10.975s-11.284-4.474-11.284-10.975,4.744-10.974,11.284-10.974,11.284,4.474,11.284,10.974m-5.214,0c0-3.8-2.479-6.374-6.07-6.374s-6.069,2.575-6.069,6.374,2.479,6.374,6.069,6.374,6.07-2.575,6.07-6.374M436.756,46.322a7.963,7.963,0,0,0-6.839,3.335V36.4H424.66V68.353h5.215V56.41c0-3.124,1.923-5.4,5.215-5.4,2.65,0,4.4,1.689,4.4,5.192V68.353h5.215V54.975c0-5.4-2.735-8.653-7.95-8.653m-50.821,11.65c4.744-4.01,7.138-7.26,7.138-11.566,0-6.247-4.146-10-10.814-10-6.625,0-10.985,4.39-11.028,11.144h5.428c.043-3.968,2.18-6.332,5.6-6.332,3.291,0,5.214,1.984,5.214,5.487,0,2.955-1.41,4.981-5.642,8.526l-10.216,8.527V68.4l21.671-.042V62.741H380.293Zm30.647-.76h3.8v4.728h-3.8v6.414H411.41V61.939H395.553V57.212L409.7,36.951h6.881ZM411.41,42.776,401.366,57.212H411.41ZM355.675,55.143v13.21h-4.5l-.453-3.628c-.9,2.153-3.761,3.63-7.052,3.63-4.488,0-7.224-2.575-7.224-6.5,0-3.841,2.821-6.247,7.822-6.627l6.326-.464V54.3c0-2.828-1.71-3.968-4.359-3.968-3.078,0-4.787,1.266-4.787,3.461H337c0-4.517,3.761-7.471,9.489-7.471,5.685,0,9.19,3.039,9.19,8.822m-5.044,3.124-4.4.338c-3.248.3-4.488,1.351-4.488,3.039,0,1.9,1.282,2.828,3.633,2.828,3.206,0,5.257-1.9,5.257-5.107Zm-21.242-21.7a3.137,3.137,0,0,0-3.206,3.135,3.163,3.163,0,1,0,6.326,0,3.118,3.118,0,0,0-3.12-3.135m-2.607,31.782H332V47.137h-5.215Zm-14.147-4.641c-3.334,0-5.385-2.448-5.385-6.374s2.223-6.416,5.556-6.416a4.562,4.562,0,0,1,4.83,3.588h5.215c-.556-5.023-4.488-8.189-10.258-8.189-6.241,0-10.558,4.559-10.558,11.017,0,6.627,4.189,11.017,10.6,11.017,5.514,0,9.617-3.335,10.258-8.189h-5.257c-.556,2.279-2.394,3.545-5,3.545" transform="translate(-128.697 -16.402)" fill="#fff"/>
  </g>
</svg>
